inDegrees=yes
name=ik_S48_A11_T02
DataType=double
version=3
OpenSimVersion=4.3-2021-08-27-4bc7ad9
endheader
time	pelvis_tilt	pelvis_list	pelvis_rotation	pelvis_tx	pelvis_ty	pelvis_tz	hip_flexion_r	hip_adduction_r	hip_rotation_r	knee_angle_r	knee_angle_r_beta	ankle_angle_r	subtalar_angle_r	mtp_angle_r	hip_flexion_l	hip_adduction_l	hip_rotation_l	knee_angle_l	knee_angle_l_beta	ankle_angle_l	subtalar_angle_l	mtp_angle_l	lumbar_extension	lumbar_bending	lumbar_rotation	arm_flex_r	arm_add_r	arm_rot_r	elbow_flex_r	pro_sup_r	wrist_flex_r	wrist_dev_r	arm_flex_l	arm_add_l	arm_rot_l	elbow_flex_l	pro_sup_l	wrist_flex_l	wrist_dev_l
6.91999999999994	0.4890931863434431	-4.313915258410725	37.01508754344081	0	0.9399999999999999	0	27.03113111706247	-8.890470283334784	-7.970262797609004	30.70444612878676	0.5358936799485557	0	0	0	27.03113111706247	-8.890470283334784	-7.970262797609004	30.70444612878676	0.5358936799485557	0	0	0	-1.120867353003686	-4.349028715775566	5.914782931319312	109.3033735673534	12.37887650341347	-6.92427513001529	26.86745851391683	107.0651664252431	0	0	16.8692246180322	-19.58973514071343	-6.282908847815111	11.33706718907321	124.1009470160748	0	0
6.93999999999994	0.4948168572937148	-4.289005324359186	37.00792546866268	0	0.9399999999999999	0	27.03319318627444	-8.890879951439382	-7.970748346680012	30.70653308547067	0.5359301042140365	0	0	0	27.03319318627444	-8.890879951439382	-7.970748346680012	30.70653308547067	0.5359301042140365	0	0	0	-1.099683659169377	-4.334331188554212	5.940715225174231	109.3420595635835	12.23434441131204	-6.902490401791088	26.83913384585856	107.0416283643895	0	0	16.81082147963504	-19.56380069019546	-6.305602567183868	11.25412189648329	124.0817892355899	0	0
6.95999999999994	0.501362607207574	-4.267423228667571	37.09590044635666	0	0.9399999999999999	0	27.03959886509101	-8.892180925717769	-7.972277730951085	30.71289226756629	0.536041092879339	0	0	0	27.03959886509101	-8.892180925717769	-7.972277730951085	30.71289226756629	0.536041092879339	0	0	0	-1.082486874818984	-4.320094217804106	5.925095333536106	109.3391675271113	12.07723345853163	-6.980548593607035	26.76469981118504	107.0601876065006	0	0	16.68520138390243	-19.50779576668935	-6.616403085470983	11.13082706522095	124.3807458785615	0	0
6.979999999999939	0.4913844655789485	-4.25488401513844	37.10958716833503	0	0.9399999999999999	0	27.0408510596416	-8.892416952541815	-7.972563138387771	30.71421468741826	0.5360641734598496	0	0	0	27.0408510596416	-8.892416952541815	-7.972563138387771	30.71421468741826	0.5360641734598496	0	0	0	-1.082749381553906	-4.304285733952945	5.928318252019176	109.3545254367484	11.96544534508968	-7.032099642407509	26.76032466561355	107.0725323304102	0	0	16.6257100649165	-19.44896377598265	-6.694322012930925	11.08552411110388	124.3962826090896	0	0
6.999999999999939	0.5006430867034732	-4.224303708971944	37.14628322272608	0	0.9399999999999999	0	27.10753990035046	-8.899387398619142	-7.984419642194528	30.78295308264851	0.5372638847791547	0	0	0	27.10753990035046	-8.899387398619142	-7.984419642194528	30.78295308264851	0.5372638847791547	0	0	0	-1.058859139534406	-4.279071642585215	5.913299950571978	109.294896209776	11.87665703532547	-6.978795730255913	26.76272746348066	107.0726320329492	0	0	16.49858572941643	-19.38091051905685	-6.792432631962406	10.80044156245994	124.5366533916239	0	0
7.019999999999938	0.4991088839465302	-4.190684944059151	37.13807008213673	0	0.9399999999999999	0	27.11362502763606	-8.900608208729908	-7.985860967698785	30.78904706319581	0.5373702448042575	0	0	0	27.11362502763606	-8.900608208729908	-7.985860967698785	30.78904706319581	0.5373702448042575	0	0	0	-1.039111456579663	-4.25216733294811	5.926155686909894	109.2133077290708	11.78014964076466	-6.986044281441612	26.81322018223904	107.1590914135254	0	0	16.42966177042241	-19.33746880676503	-6.901744651919832	10.70107627869497	124.7005424759546	0	0
7.039999999999938	0.4920182879525136	-4.174658925608124	37.13020059036582	0	0.9399999999999999	0	27.12603409151706	-8.902237398892291	-7.988249541872082	30.80175317639191	0.5375920083146606	0	0	0	27.12603409151706	-8.902237398892291	-7.988249541872082	30.80175317639191	0.5375920083146606	0	0	0	-1.03541935799589	-4.23516085596308	5.92811486182398	109.2267103849892	11.69604529602976	-7.025793111916161	26.82298042759418	107.1850662487277	0	0	16.38555121949926	-19.31511688928151	-6.957753602997792	10.6672041961389	124.7066490616113	0	0
7.059999999999937	0.4902654809708225	-4.160847905877958	37.1161175093647	0	0.9399999999999999	0	27.12738231101281	-8.902626876498902	-7.988629832557988	30.80302431550161	0.5376141938773756	0	0	0	27.12738231101281	-8.902626876498902	-7.988629832557988	30.80302431550161	0.5376141938773756	0	0	0	-1.028159648923465	-4.223540313630617	5.934059846492661	109.2197730547855	11.64194368802959	-7.068107742787085	26.74196296814849	107.2514909490537	0	0	16.35073809290221	-19.30704119552295	-6.966557154977422	10.64279012512817	124.7688686517419	0	0
7.079999999999937	0.4791873856878391	-4.147921789567264	37.09333089232696	0	0.9399999999999999	0	27.1423346142959	-8.904963448726511	-7.991747279189707	30.81812248584583	0.5378777066609093	0	0	0	27.1423346142959	-8.904963448726511	-7.991747279189707	30.81812248584583	0.5378777066609093	0	0	0	-1.030094892891501	-4.206002926414723	5.926833044579504	109.196614625151	11.62334954608525	-7.062446959629606	26.69066989021339	107.189279076774	0	0	16.33407770623375	-19.2752655948395	-6.959671083293787	10.63128735109565	124.7539396004708	0	0
7.099999999999937	0.470476752071314	-4.143025280058239	37.09987431850845	0	0.9399999999999999	0	27.1598235342239	-8.907856186028237	-7.995504306051006	30.8357225500453	0.5381848857297524	0	0	0	27.1598235342239	-8.907856186028237	-7.995504306051006	30.8357225500453	0.5381848857297524	0	0	0	-1.033414313804319	-4.198045135190823	5.948324031016978	109.1937548481041	11.53389430579706	-7.04258251740539	26.57409510098837	107.0356938986004	0	0	16.35573999046238	-19.28191786679901	-6.890139689248278	10.6339481882266	124.7439524047019	0	0
7.119999999999936	0.4676581615053308	-4.125031946355811	37.0845982191583	0	0.9399999999999999	0	27.15196860097122	-8.908793584856209	-7.995182434222106	30.82680708071063	0.5380292814355019	0	0	0	27.15196860097122	-8.908793584856209	-7.995182434222106	30.82680708071063	0.5380292814355019	0	0	0	-1.024132344850513	-4.182381909112594	5.953149002309665	109.1516232505946	11.4913140960538	-7.020086558713801	26.54177499896829	107.0516366772398	0	0	16.36191923394595	-19.30403424223625	-6.920011663101571	10.66663560488688	124.7507736151853	0	0
7.139999999999936	0.4699856461160523	-4.086064078536574	37.08114465388028	0	0.9399999999999999	0	27.14415473640222	-8.908965726218277	-7.994399410368083	30.8183059014729	0.5378809078675013	0	0	0	27.14415473640222	-8.908965726218277	-7.994399410368083	30.8183059014729	0.5378809078675013	0	0	0	-0.9974540264502306	-4.153766429754461	5.967181614511735	109.0743178480192	11.4920805910951	-6.972016917847719	26.45446844617056	107.183610622056	0	0	16.35494558275905	-19.29295938540404	-6.924451225795933	10.66182374465319	124.7460938129422	0	0
7.159999999999935	0.4671049901922724	-4.079563729290453	37.07331046920973	0	0.9399999999999999	0	27.1660856236323	-8.913252866852977	-7.999524928428336	30.84006616187776	0.5382606960576575	0	0	0	27.1660856236323	-8.913252866852977	-7.999524928428336	30.84006616187776	0.5382606960576575	0	0	0	-0.9961919589587807	-4.14690376829799	5.971915834828754	109.0601939461461	11.42452181822377	-6.94273931792886	26.4507838882695	107.2111914474901	0	0	16.33766558148834	-19.28934455409976	-6.919016935879174	10.73894959494333	124.7218746812861	0	0
7.179999999999935	0.4625582671796085	-4.071101743325869	37.06511422629788	0	0.9399999999999999	0	27.19435377695793	-8.920819813772736	-8.007385162190779	30.86712028876919	0.5387328796481652	0	0	0	27.19435377695793	-8.920819813772736	-8.007385162190779	30.86712028876919	0.5387328796481652	0	0	0	-0.9950620098546883	-4.137464390076986	5.976310105893072	109.0342155035896	11.36309338356419	-6.899429884325517	26.45636576495322	107.1889555783198	0	0	16.36091987827895	-19.32193127286686	-6.92775834360698	10.80261282375495	124.6927859472555	0	0
